<?xml version="1.0" encoding="UTF-8" standalone="no"?>
<svg width="25px" height="25px" viewBox="0 0 25 25" version="1.1" xmlns="http://www.w3.org/2000/svg" xmlns:xlink="http://www.w3.org/1999/xlink">
    <!-- Generator: Sketch 41.2 (35397) - http://www.bohemiancoding.com/sketch -->
    <title>grid-icon</title>
    <desc>Created with Sketch.</desc>
    <defs></defs>
    <g id="Page-1" stroke="none" stroke-width="1" fill="none" fill-rule="evenodd">
        <g id="contact_grid" transform="translate(-1120.000000, -439.000000)" fill="#C6D1E0">
            <g id="grid-icon" transform="translate(1120.000000, 439.000000)">
                <path d="M9.07534247,11.1301541 L2.05479452,11.1301541 C0.920034247,11.1301541 0,10.2101199 0,9.07535959 L0,2.05481164 C0,0.92005137 0.920034247,1.71232876e-05 2.05479452,1.71232876e-05 L9.07534247,1.71232876e-05 C10.2101027,1.71232876e-05 11.130137,0.92005137 11.130137,2.05481164 L11.130137,9.07535959 C11.130137,10.2101199 10.2101027,11.1301541 9.07534247,11.1301541" id="Fill-1"></path>
                <path d="M9.07534247,24.9207192 L2.05479452,24.9207192 C0.920034247,24.9207192 0,24.0006849 0,22.8659247 L0,15.8453767 C0,14.7106164 0.920034247,13.7905822 2.05479452,13.7905822 L9.07534247,13.7905822 C10.2101027,13.7905822 11.130137,14.7106164 11.130137,15.8453767 L11.130137,22.8659247 C11.130137,24.0006849 10.2101027,24.9207192 9.07534247,24.9207192" id="Fill-3"></path>
                <path d="M22.7509932,11.1301541 L15.7304452,11.1301541 C14.5956849,11.1301541 13.6756507,10.2101199 13.6756507,9.07535959 L13.6756507,2.05481164 C13.6756507,0.92005137 14.5956849,1.71232876e-05 15.7304452,1.71232876e-05 L22.7509932,1.71232876e-05 C23.8857534,1.71232876e-05 24.8057877,0.92005137 24.8057877,2.05481164 L24.8057877,9.07535959 C24.8057877,10.2101199 23.8857534,11.1301541 22.7509932,11.1301541" id="Fill-5"></path>
                <path d="M22.7509932,24.9207192 L15.7304452,24.9207192 C14.5956849,24.9207192 13.6756507,24.0006849 13.6756507,22.8659247 L13.6756507,15.8453767 C13.6756507,14.7106164 14.5956849,13.7905822 15.7304452,13.7905822 L22.7509932,13.7905822 C23.8857534,13.7905822 24.8057877,14.7106164 24.8057877,15.8453767 L24.8057877,22.8659247 C24.8057877,24.0006849 23.8857534,24.9207192 22.7509932,24.9207192" id="Fill-7"></path>
            </g>
        </g>
    </g>
</svg>