<?xml version="1.0" encoding="UTF-8" standalone="no"?>
<svg width="27px" height="25px" viewBox="0 0 27 25" version="1.1" xmlns="http://www.w3.org/2000/svg" xmlns:xlink="http://www.w3.org/1999/xlink">
    <!-- Generator: Sketch 41.2 (35397) - http://www.bohemiancoding.com/sketch -->
    <title>list-icon</title>
    <desc>Created with Sketch.</desc>
    <defs>
        <polygon id="path-1" points="26.6617637 0.171232877 0 0.171232877 0 6.72167808 26.6617637 6.72167808 26.6617637 0.171232877"></polygon>
        <polygon id="path-3" points="4.64127642e-21 9.13503425 4.64127642e-21 15.6855479 26.6617637 15.6855479 26.6617637 9.13503425 0 9.13503425"></polygon>
    </defs>
    <g id="Page-1" stroke="none" stroke-width="1" fill="none" fill-rule="evenodd">
        <g id="contact_grid" transform="translate(-1164.000000, -439.000000)">
            <g id="list-icon" transform="translate(1164.000000, 439.000000)">
                <g id="Group">
                    <mask id="mask-2" fill="white">
                        <use xlink:href="#path-1"></use>
                    </mask>
                    <g id="Clip-2"></g>
                    <path d="M24.6069692,6.72167808 L2.05474315,6.72167808 C0.919982877,6.72167808 -5.13698631e-05,5.80164384 -5.13698631e-05,4.66688356 L-5.13698631e-05,2.2259589 C-5.13698631e-05,1.09119863 0.919982877,0.171164384 2.05474315,0.171164384 L24.6069692,0.171164384 C25.7417295,0.171164384 26.6617637,1.09119863 26.6617637,2.2259589 L26.6617637,4.66688356 C26.6617637,5.80164384 25.7417295,6.72167808 24.6069692,6.72167808" id="Fill-1" fill="#C6D1E0" mask="url(#mask-2)"></path>
                    <mask id="mask-4" fill="white">
                        <use xlink:href="#path-3"></use>
                    </mask>
                    <g id="Clip-5"></g>
                    <path d="M24.6069692,15.6855479 L2.05474315,15.6855479 C0.919982877,15.6855479 -5.13698631e-05,14.7655137 -5.13698631e-05,13.6307534 L-5.13698631e-05,11.1898288 C-5.13698631e-05,10.0550685 0.919982877,9.13503425 2.05474315,9.13503425 L24.6069692,9.13503425 C25.7417295,9.13503425 26.6617637,10.0550685 26.6617637,11.1898288 L26.6617637,13.6307534 C26.6617637,14.7655137 25.7417295,15.6855479 24.6069692,15.6855479" id="Fill-4" fill="#C6D1E0" mask="url(#mask-4)"></path>
                </g>
                <path d="M24.7218836,24.9941781 L2.16965753,24.9941781 C1.03489726,24.9941781 0.114863014,24.0741438 0.114863014,22.9393836 L0.114863014,20.4984589 C0.114863014,19.3636986 1.03489726,18.4436644 2.16965753,18.4436644 L24.7218836,18.4436644 C25.8566438,18.4436644 26.7766781,19.3636986 26.7766781,20.4984589 L26.7766781,22.9393836 C26.7766781,24.0741438 25.8566438,24.9941781 24.7218836,24.9941781" id="Fill-7" fill="#C6D1E0"></path>
            </g>
        </g>
    </g>
</svg>