<?xml version="1.0" encoding="UTF-8" standalone="no"?>
<svg width="29px" height="27px" viewBox="0 0 29 27" version="1.1" xmlns="http://www.w3.org/2000/svg" xmlns:xlink="http://www.w3.org/1999/xlink">
    <!-- Generator: Sketch 41.2 (35397) - http://www.bohemiancoding.com/sketch -->
    <title>star-active</title>
    <desc>Created with Sketch.</desc>
    <defs></defs>
    <g id="Page-1" stroke="none" stroke-width="1" fill="none" fill-rule="evenodd">
        <g id="contact_grid" transform="translate(-425.000000, -845.000000)" fill="#FCCB39">
            <path d="M452.47836,857.19725 C453.02884,856.658375 453.22316,855.8675 452.98572,855.132313 C452.74772,854.397125 452.1278,853.872313 451.3662,853.760937 L444.59468,852.772625 C444.30628,852.730437 444.05708,852.54875 443.92828,852.286062 L440.90092,846.12275 C440.561,845.430313 439.87108,845 439.1022,845 C438.33388,845 437.64396,845.430313 437.30404,846.12275 L434.27612,852.286062 C434.14732,852.54875 433.89756,852.730437 433.60916,852.772625 L426.83764,853.7615 C426.0766,853.872313 425.45668,854.397125 425.21868,855.132313 C424.98124,855.8675 425.17556,856.658375 425.72604,857.19725 L430.62548,861.99425 C430.83436,862.199 430.93012,862.49375 430.88084,862.78175 L429.72444,869.555938 C429.59452,870.317 429.89972,871.071312 430.52188,871.525813 C431.14348,871.980875 431.95268,872.039937 432.6342,871.679375 L438.69004,868.481 C438.9482,868.344875 439.2562,868.344875 439.51436,868.481 L445.57076,871.679375 C445.86644,871.83575 446.18676,871.912812 446.5054,871.912812 C446.91924,871.912812 447.3314,871.782875 447.68308,871.525813 C448.30524,871.071312 448.61044,870.317 448.48052,869.555938 L447.32356,862.782312 C447.27428,862.49375 447.37004,862.199562 447.57892,861.994812 L452.47836,857.19725 Z" id="star-active"></path>
        </g>
    </g>
</svg>